<svg width="898" height="557" viewBox="0 0 898 557" fill="none" xmlns="http://www.w3.org/2000/svg">
<path d="M656.713 35.1415H222.703C220.565 35.1416 218.514 35.9905 217.001 37.5017C215.487 39.0129 214.636 41.0629 214.633 43.2015V248.071C214.636 250.211 215.487 252.262 217 253.775C218.512 255.288 220.564 256.139 222.703 256.141H656.713C658.851 256.137 660.9 255.285 662.411 253.772C663.922 252.26 664.771 250.209 664.773 248.071V43.2015C664.771 41.0645 663.921 39.0157 662.41 37.5046C660.899 35.9935 658.85 35.1437 656.713 35.1415V35.1415Z" fill="url(#paint0_linear_0_1)"/>
<path d="M468.883 134C465.467 134.002 462.192 134.852 459.777 136.363C457.362 137.874 456.003 139.923 456 142.06V199.93C456.003 202.068 457.361 204.118 459.775 205.631C462.19 207.144 465.465 207.996 468.883 208H665V134H468.883Z" fill="#6C63FF"/>
<path opacity="0.5" d="M793.076 207.766H464.066C461.928 207.763 459.877 206.913 458.365 205.4C456.853 203.888 456.002 201.838 456 199.699V141.832C456.002 139.693 456.853 137.643 458.365 136.131C459.878 134.618 461.928 133.768 464.066 133.766H793.076C795.215 133.768 797.265 134.618 798.778 136.131C800.29 137.643 801.14 139.693 801.143 141.832V199.699C801.14 201.838 800.29 203.888 798.778 205.4C797.265 206.913 795.215 207.763 793.076 207.766Z" fill="#63FFF6"/>
<path d="M508.56 187.554C515.789 187.554 521.649 181.694 521.649 174.465C521.649 167.236 515.789 161.376 508.56 161.376C501.331 161.376 495.47 167.236 495.47 174.465C495.47 181.694 501.331 187.554 508.56 187.554Z" fill="white"/>
<path d="M782.883 170.662H546.368C545.335 170.662 544.343 170.251 543.612 169.52C542.881 168.789 542.471 167.798 542.471 166.764C542.471 165.73 542.881 164.739 543.612 164.008C544.343 163.277 545.335 162.866 546.368 162.866H782.883C783.916 162.866 784.908 163.277 785.639 164.008C786.37 164.739 786.78 165.73 786.78 166.764C786.78 167.798 786.37 168.789 785.639 169.52C784.908 170.251 783.916 170.662 782.883 170.662Z" fill="white"/>
<path d="M693.052 186.064H546.368C545.335 186.064 544.343 185.653 543.612 184.922C542.881 184.191 542.47 183.2 542.47 182.166C542.47 181.132 542.881 180.141 543.612 179.41C544.343 178.679 545.335 178.268 546.368 178.268H693.052C694.086 178.268 695.077 178.679 695.808 179.41C696.539 180.141 696.95 181.132 696.95 182.166C696.95 183.2 696.539 184.191 695.808 184.922C695.077 185.653 694.086 186.064 693.052 186.064V186.064Z" fill="white"/>
<path d="M151.406 464.537L162.734 464.536L168.123 420.843H151.404L151.406 464.537Z" fill="#FFB6B6"/>
<path d="M148.517 460.838L151.705 460.838L164.154 455.776L170.826 460.837H170.826C174.597 460.837 178.213 462.335 180.879 465.001C183.545 467.667 185.043 471.283 185.043 475.054V475.516L148.517 475.517L148.517 460.838Z" fill="#FFF5DA"/>
<path d="M49.4837 449.106L59.6227 454.159L83.9367 417.458L68.9737 410L49.4837 449.106Z" fill="#FFB6B6"/>
<path d="M48.5477 444.507L51.4014 445.929L64.8008 446.951L68.5141 454.458L68.5149 454.458C71.8893 456.14 74.4573 459.094 75.6541 462.669C76.851 466.245 76.5785 470.149 74.8968 473.524L74.6907 473.938L42 457.645L48.5477 444.507Z" fill="#FFF5DA"/>
<path d="M157.233 266L89.587 267.876L90.7634 302.897C90.7634 302.897 89.587 312.277 91.9399 314.779C94.2928 317.28 95.4693 317.28 94.2928 321.658C93.1163 326.035 90.0749 367.862 90.0749 367.862C90.0749 367.862 62.3108 420.053 63.4873 421.304C64.6638 422.554 65.8402 421.304 64.6638 424.43C63.4873 427.557 62.3108 426.307 63.4873 427.557C64.5294 428.752 65.5112 430.004 66.4285 431.309H85.6026C85.6026 431.309 86.6749 425.056 86.6749 424.43C86.6749 423.805 87.8513 420.053 87.8513 419.427C87.8513 418.802 121.351 381.068 121.351 381.068L128.41 318.531L145.469 379.817C145.469 379.817 145.469 433.599 146.645 434.85C147.822 436.1 147.822 435.475 147.234 437.976C146.645 440.478 144.292 439.853 146.057 441.729C147.822 443.605 148.41 440.478 147.822 443.605L147.234 446.732L169.833 447C169.833 447 172.186 441.729 171.009 439.853C169.833 437.976 169.903 438.489 171.339 435.418C172.774 432.348 173.362 431.723 172.774 431.097C172.186 430.472 172.186 427.146 172.186 427.146C172.186 427.146 163.704 304.148 163.704 302.271C163.66 301.306 163.827 300.343 164.193 299.458V296.912L161.939 287.888L157.233 266Z" fill="#F4DFB6"/>
<path d="M791.669 157.276C786.203 157.276 780.859 155.655 776.314 152.618C771.769 149.581 768.227 145.265 766.135 140.215C764.043 135.164 763.496 129.607 764.562 124.246C765.629 118.885 768.261 113.96 772.126 110.095C775.991 106.23 780.916 103.597 786.277 102.531C791.639 101.465 797.196 102.012 802.246 104.104C807.296 106.196 811.612 109.738 814.649 114.283C817.686 118.828 819.307 124.172 819.307 129.638C819.307 136.968 816.395 143.998 811.212 149.181C806.029 154.364 798.999 157.276 791.669 157.276V157.276Z" fill="#6C63FF"/>
<path d="M802.574 126.912H794.396V118.733C794.396 118.01 794.108 117.316 793.597 116.805C793.086 116.294 792.392 116.006 791.669 116.006C790.946 116.006 790.253 116.294 789.741 116.805C789.23 117.316 788.943 118.01 788.943 118.733V126.912H780.764C780.405 126.911 780.05 126.981 779.719 127.118C779.388 127.255 779.086 127.455 778.833 127.708C778.579 127.962 778.378 128.262 778.24 128.594C778.103 128.925 778.032 129.28 778.032 129.638C778.032 129.997 778.103 130.352 778.24 130.683C778.378 131.014 778.579 131.314 778.833 131.568C779.086 131.821 779.388 132.022 779.719 132.158C780.05 132.295 780.405 132.365 780.764 132.364H788.943V140.543C788.943 141.266 789.23 141.96 789.741 142.471C790.253 142.983 790.946 143.27 791.669 143.27C792.392 143.27 793.086 142.983 793.597 142.471C794.108 141.96 794.396 141.266 794.396 140.543V132.364H802.574C803.297 132.364 803.991 132.077 804.502 131.566C805.013 131.055 805.301 130.361 805.301 129.638C805.301 128.915 805.013 128.222 804.502 127.71C803.991 127.199 803.297 126.912 802.574 126.912V126.912Z" fill="white"/>
<path d="M447.883 208.211H342.873C340.734 208.214 338.682 209.065 337.17 210.578C335.657 212.091 334.806 214.142 334.803 216.281V256.141H455.943V216.281C455.942 214.143 455.092 212.093 453.581 210.581C452.07 209.068 450.021 208.216 447.883 208.211V208.211Z" fill="#6C63FF"/>
<path opacity="0.5" d="M447.88 320.211H342.87C340.731 320.209 338.681 319.358 337.169 317.846C335.656 316.334 334.806 314.284 334.803 312.145V216.278C334.806 214.139 335.656 212.089 337.169 210.577C338.681 209.064 340.731 208.214 342.87 208.211H447.88C450.018 208.214 452.069 209.064 453.581 210.577C455.093 212.089 455.944 214.139 455.946 216.278V312.145C455.944 314.284 455.093 316.334 453.581 317.846C452.069 319.358 450.018 320.209 447.88 320.211Z" fill="#6C63FF"/>
<path d="M373.808 253.652C381.037 253.652 386.898 247.792 386.898 240.563C386.898 233.334 381.037 227.473 373.808 227.473C366.579 227.473 360.719 233.334 360.719 240.563C360.719 247.792 366.579 253.652 373.808 253.652Z" fill="white"/>
<path d="M426.131 273.547H364.617C363.583 273.547 362.592 273.137 361.861 272.406C361.13 271.675 360.719 270.683 360.719 269.649C360.719 268.616 361.13 267.624 361.861 266.893C362.592 266.162 363.583 265.752 364.617 265.752H426.131C427.165 265.752 428.156 266.162 428.887 266.893C429.618 267.624 430.029 268.616 430.029 269.649C430.029 270.683 429.618 271.675 428.887 272.406C428.156 273.137 427.165 273.547 426.131 273.547Z" fill="white"/>
<path d="M394.301 288.949H364.617C363.583 288.949 362.592 288.539 361.861 287.807C361.13 287.076 360.719 286.085 360.719 285.051C360.719 284.017 361.13 283.026 361.861 282.295C362.592 281.564 363.583 281.153 364.617 281.153H394.301C395.334 281.153 396.326 281.564 397.057 282.295C397.788 283.026 398.199 284.017 398.199 285.051C398.199 286.085 397.788 287.076 397.057 287.807C396.326 288.539 395.334 288.949 394.301 288.949V288.949Z" fill="white"/>
<path d="M340.68 348.348C335.214 348.348 329.871 346.727 325.326 343.69C320.781 340.653 317.238 336.337 315.146 331.286C313.054 326.236 312.507 320.679 313.573 315.318C314.64 309.957 317.272 305.032 321.137 301.167C325.003 297.302 329.927 294.669 335.288 293.603C340.65 292.536 346.207 293.084 351.257 295.176C356.307 297.267 360.624 300.81 363.661 305.355C366.697 309.9 368.318 315.244 368.318 320.71C368.318 328.04 365.407 335.07 360.223 340.253C355.04 345.436 348.01 348.348 340.68 348.348V348.348Z" fill="#6C63FF"/>
<path d="M351.586 317.984H343.407V309.805C343.407 309.081 343.12 308.388 342.608 307.877C342.097 307.365 341.403 307.078 340.68 307.078C339.957 307.078 339.264 307.365 338.753 307.877C338.241 308.388 337.954 309.081 337.954 309.805V317.984H329.775C329.417 317.983 329.062 318.053 328.73 318.19C328.399 318.326 328.098 318.527 327.844 318.78C327.59 319.033 327.389 319.334 327.252 319.665C327.114 319.996 327.044 320.351 327.044 320.71C327.044 321.068 327.114 321.423 327.252 321.754C327.389 322.085 327.59 322.386 327.844 322.639C328.098 322.893 328.399 323.093 328.73 323.23C329.062 323.367 329.417 323.437 329.775 323.436H337.954V331.615C337.954 332.338 338.241 333.032 338.753 333.543C339.264 334.054 339.957 334.341 340.68 334.341C341.403 334.341 342.097 334.054 342.608 333.543C343.12 333.032 343.407 332.338 343.407 331.615V323.436H351.586C352.309 323.436 353.002 323.149 353.513 322.638C354.025 322.126 354.312 321.433 354.312 320.71C354.312 319.987 354.025 319.293 353.513 318.782C353.002 318.271 352.309 317.984 351.586 317.984Z" fill="white"/>
<path d="M277.077 112H172.066C169.928 111.998 167.877 111.147 166.365 109.635C164.853 108.122 164.002 106.072 164 103.934V8.06604C164.002 5.92749 164.853 3.87724 166.365 2.36508C167.878 0.852924 169.928 0.00237143 172.066 0H277.077C279.215 0.00237143 281.265 0.852924 282.778 2.36508C284.29 3.87724 285.14 5.92749 285.143 8.06604V103.934C285.14 106.072 284.29 108.122 282.778 109.635C281.265 111.147 279.215 111.998 277.077 112V112Z" fill="#6C63FF"/>
<path d="M253.816 88.7073C261.045 88.7073 266.906 82.847 266.906 75.618C266.906 68.3889 261.045 62.5286 253.816 62.5286C246.587 62.5286 240.727 68.3889 240.727 75.618C240.727 82.847 246.587 88.7073 253.816 88.7073Z" fill="#6C63FF"/>
<path opacity="0.5" d="M277.077 112H172.066C169.928 111.998 167.877 111.147 166.365 109.635C164.853 108.122 164.002 106.072 164 103.934V8.06604C164.002 5.92749 164.853 3.87724 166.365 2.36508C167.878 0.852924 169.928 0.00237143 172.066 0H277.077C279.215 0.00237143 281.265 0.852924 282.778 2.36508C284.29 3.87724 285.14 5.92749 285.143 8.06604V103.934C285.14 106.072 284.29 108.122 282.778 109.635C281.265 111.147 279.215 111.998 277.077 112V112Z" fill="#FF0000"/>
<path d="M255.328 69.3359H193.814C192.781 69.3359 191.789 68.9253 191.058 68.1943C190.327 67.4633 189.917 66.4719 189.917 65.4382C189.917 64.4044 190.327 63.413 191.058 62.6821C191.789 61.9511 192.781 61.5404 193.814 61.5404H255.328C256.362 61.5404 257.354 61.9511 258.085 62.6821C258.816 63.413 259.226 64.4044 259.226 65.4382C259.226 66.4719 258.816 67.4633 258.085 68.1943C257.354 68.9253 256.362 69.3359 255.328 69.3359V69.3359Z" fill="white"/>
<path d="M223.498 84.7379H193.814C192.781 84.7379 191.789 84.3272 191.058 83.5962C190.327 82.8652 189.916 81.8737 189.916 80.84C189.916 79.8062 190.327 78.8147 191.058 78.0837C191.789 77.3527 192.781 76.942 193.814 76.942H223.498C224.532 76.942 225.523 77.3527 226.254 78.0837C226.985 78.8147 227.396 79.8062 227.396 80.84C227.396 81.8737 226.985 82.8652 226.254 83.5962C225.523 84.3272 224.532 84.7379 223.498 84.7379V84.7379Z" fill="white"/>
<path d="M267 239C278.598 239 288 229.598 288 218C288 206.402 278.598 197 267 197C255.402 197 246 206.402 246 218C246 229.598 255.402 239 267 239Z" fill="url(#paint1_linear_0_1)"/>
<path d="M282.67 474.785C282.671 474.942 282.64 475.097 282.58 475.241C282.521 475.386 282.433 475.517 282.323 475.628C282.212 475.738 282.081 475.826 281.936 475.886C281.791 475.945 281.636 475.976 281.48 475.975H1.19C0.874395 475.975 0.57171 475.85 0.348541 475.627C0.125373 475.404 0 475.101 0 474.785C0 474.47 0.125373 474.167 0.348541 473.944C0.57171 473.721 0.874395 473.595 1.19 473.595H281.48C281.636 473.595 281.791 473.625 281.936 473.685C282.081 473.745 282.212 473.832 282.323 473.943C282.433 474.053 282.521 474.185 282.58 474.329C282.64 474.474 282.671 474.629 282.67 474.785V474.785Z" fill="#CCCCCC"/>
<path d="M220.555 90.5761C221.418 92.9899 221.298 95.6462 220.221 97.9725C219.144 100.299 217.195 102.108 214.796 103.011C214.265 103.209 213.718 103.36 213.161 103.462L207.614 137.421L194.604 125.409L201.866 95.0021C201.597 92.4398 202.347 89.8748 203.955 87.8614C205.562 85.848 207.897 84.5481 210.455 84.2427C212.608 83.9959 214.78 84.4885 216.615 85.6394C218.45 86.7903 219.84 88.5312 220.555 90.576L220.555 90.5761Z" fill="#FFB6B6"/>
<path d="M124.54 167.524C124.54 167.524 134.638 154.183 171.279 154.548L192.077 146.992L196.83 103.422L213.466 107.383L211.089 161.251L175.441 181.848L128.702 191.354L124.54 167.524Z" fill="#FFF5DA"/>
<path d="M119.175 139.73C131.186 139.73 140.923 129.994 140.923 117.983C140.923 105.972 131.186 96.2352 119.175 96.2352C107.165 96.2352 97.4279 105.972 97.4279 117.983C97.4279 129.994 107.165 139.73 119.175 139.73Z" fill="#FFB6B6"/>
<path d="M97.0522 277C97.0219 277 96.9916 276.995 96.9624 276.985C96.6466 276.873 96.3971 276.785 97.5369 264.284L98.767 254.402L97.5661 245.677L95.5462 243.115L98.7925 238.997L101.517 229.181L96.803 220.321L91.3949 184.086C90.4652 177.833 91.1877 171.366 93.4504 165.688C95.7131 160.009 99.3896 155.436 103.91 152.678L110.169 150.358L112.447 145.06C113.086 143.572 114.028 142.329 115.174 141.458C116.32 140.588 117.629 140.122 118.965 140.109L130.427 140C131.583 139.989 132.726 140.318 133.766 140.961C134.805 141.604 135.713 142.544 136.418 143.707L140.417 150.301L157 157.447L154.25 232.6C154.687 233.063 155.043 233.637 155.296 234.284C155.549 234.931 155.694 235.638 155.72 236.36C155.747 237.082 155.655 237.802 155.451 238.477C155.246 239.151 154.934 239.764 154.533 240.278C154.361 240.498 154.224 240.678 154.139 240.797C153.86 241.3 154.384 245.062 155.032 248.255L155.862 253.146C155.596 253.387 155.372 253.696 155.204 254.053C155.036 254.411 154.929 254.808 154.889 255.22C154.848 255.633 154.875 256.051 154.969 256.449C155.062 256.848 155.22 257.217 155.432 257.534L156.491 259.121C156.7 261.111 156.279 263.125 155.319 264.721C154.36 266.318 152.94 267.366 151.372 267.637C136.217 270.254 97.1314 277 97.0522 277Z" fill="#FFF5DA"/>
<path d="M113.612 138.665C113.519 138.461 113.426 138.256 113.334 138.05C113.37 138.051 113.405 138.056 113.44 138.057L113.612 138.665Z" fill="#2F2E41"/>
<path d="M96.823 97.2242C97.8556 96.25 99.1978 95.6697 100.615 95.5848C102.021 95.6301 103.447 96.9003 103.156 98.2768C105.739 93.7033 109.85 90.1857 114.769 88.3415C119.687 86.4973 125.097 86.4444 130.051 88.192C133.546 89.4251 136.973 91.8921 137.776 95.5104C137.854 96.4604 138.138 97.3821 138.607 98.212C139.013 98.6556 139.54 98.9708 140.123 99.1185C140.707 99.2663 141.32 99.2402 141.889 99.0435L141.923 99.0334C142.118 98.9669 142.328 98.9604 142.526 99.0146C142.725 99.0689 142.902 99.1814 143.036 99.3376C143.17 99.4938 143.254 99.6866 143.277 99.8909C143.3 100.095 143.261 100.302 143.165 100.484L142.176 102.328C143.423 102.606 144.718 102.579 145.952 102.248C146.157 102.194 146.373 102.205 146.572 102.279C146.77 102.354 146.941 102.487 147.06 102.662C147.18 102.837 147.242 103.045 147.239 103.257C147.235 103.469 147.167 103.674 147.042 103.846C145.398 106.094 143.253 107.928 140.776 109.201C138.298 110.475 135.558 111.152 132.773 111.18C128.822 111.156 124.83 109.794 120.984 110.703C119.496 111.054 118.106 111.734 116.916 112.693C115.725 113.652 114.764 114.865 114.104 116.244C113.443 117.623 113.1 119.132 113.099 120.66C113.097 122.189 113.438 123.699 114.097 125.078C112.915 123.786 110.631 124.092 109.423 125.359C108.866 126.037 108.455 126.822 108.214 127.666C107.974 128.51 107.909 129.394 108.023 130.264C108.346 132.928 109.137 135.514 110.36 137.902C105.687 137.758 101.171 136.184 97.4217 133.392C93.6724 130.599 90.8704 126.723 89.3943 122.288C87.9182 117.852 87.839 113.07 89.1676 108.588C90.4961 104.106 93.1682 100.139 96.823 97.2242Z" fill="#2D2D2D"/>
<path d="M90.8395 314.068C88.7603 312.569 87.3537 310.312 86.923 307.785C86.4923 305.258 87.0721 302.663 88.5372 300.559C88.8622 300.095 89.2277 299.661 89.6293 299.261L74.954 268.138L92.4809 270.662L103.73 299.83C105.403 301.789 106.239 304.328 106.055 306.898C105.872 309.467 104.684 311.862 102.75 313.563C101.116 314.986 99.0476 315.811 96.8833 315.903C94.7189 315.995 92.5877 315.348 90.8396 314.068H90.8395Z" fill="#FFB6B6"/>
<path d="M86.3953 297.074L63.0433 244.591L62.8094 203.139L70.1705 180.749C71.1691 177.711 72.7666 174.904 74.8685 172.494C76.9705 170.085 79.5341 168.121 82.408 166.718C85.2819 165.316 88.4077 164.505 91.6007 164.331C94.7937 164.158 97.989 164.626 100.998 165.709L101.16 165.767L101.228 165.925C101.5 166.56 107.674 181.832 89.3608 213.248L85.6753 234.744L98.6075 284.018L86.3953 297.074Z" fill="#FFF5DA"/>
<path d="M860.27 474H474.73C471.62 473.996 468.638 472.76 466.439 470.562C464.24 468.365 463.004 465.385 463 462.276V245H872V462.276C871.996 465.385 870.76 468.365 868.561 470.562C866.362 472.76 863.38 473.996 860.27 474V474Z" fill="url(#paint2_linear_0_1)"/>
<path d="M845.924 451H489.076C487.465 450.998 485.921 450.362 484.782 449.23C483.643 448.099 483.002 446.565 483 444.965V273.035C483.002 271.435 483.643 269.901 484.782 268.77C485.921 267.638 487.465 267.002 489.076 267H845.924C847.535 267.002 849.079 267.638 850.218 268.77C851.357 269.901 851.998 271.435 852 273.035V444.965C851.998 446.565 851.357 448.099 850.218 449.23C849.079 450.362 847.535 450.998 845.924 451V451Z" fill="white" fill-opacity="0.5"/>
<path d="M873 252H462V242.648C462.004 239.56 463.242 236.599 465.442 234.415C467.643 232.232 470.627 231.003 473.74 231H861.26C864.373 231.003 867.357 232.232 869.558 234.415C871.758 236.599 872.996 239.56 873 242.648V252Z" fill="#0900A3"/>
<path d="M573.977 385H511.023C509.426 384.998 507.895 384.368 506.766 383.248C505.637 382.128 505.002 380.61 505 379.026V337.974C505.002 336.39 505.637 334.872 506.766 333.752C507.895 332.632 509.426 332.002 511.023 332H573.977C575.574 332.002 577.105 332.632 578.234 333.752C579.363 334.872 579.998 336.39 580 337.974V379.026C579.998 380.61 579.363 382.128 578.234 383.248C577.105 384.368 575.574 384.998 573.977 385V385Z" fill="#E6E6E6"/>
<path d="M826.627 340H626.373C625.478 340 624.62 339.579 623.988 338.828C623.355 338.078 623 337.061 623 336C623 334.939 623.355 333.922 623.988 333.172C624.62 332.421 625.478 332 626.373 332H826.627C827.522 332 828.38 332.421 829.012 333.172C829.645 333.922 830 334.939 830 336C830 337.061 829.645 338.078 829.012 338.828C828.38 339.579 827.522 340 826.627 340V340Z" fill="#E6E6E6"/>
<path d="M826.627 361H626.373C625.478 361 624.62 360.684 623.988 360.121C623.355 359.559 623 358.796 623 358C623 357.204 623.355 356.441 623.988 355.879C624.62 355.316 625.478 355 626.373 355H826.627C827.522 355 828.38 355.316 829.012 355.879C829.645 356.441 830 357.204 830 358C830 358.796 829.645 359.559 829.012 360.121C828.38 360.684 827.522 361 826.627 361V361Z" fill="#E6E6E6"/>
<path d="M826.627 387H626.373C625.478 387 624.62 386.631 623.988 385.975C623.355 385.318 623 384.428 623 383.5C623 382.572 623.355 381.682 623.988 381.025C624.62 380.369 625.478 380 626.373 380H826.627C827.522 380 828.38 380.369 829.012 381.025C829.645 381.682 830 382.572 830 383.5C830 384.428 829.645 385.318 829.012 385.975C828.38 386.631 827.522 387 826.627 387V387Z" fill="#E6E6E6"/>
<g clip-path="url(#clip0_0_1)">
<path d="M620 95.9995C633.807 95.9995 645 84.8067 645 70.9995C645 57.1924 633.807 45.9995 620 45.9995C606.193 45.9995 595 57.1924 595 70.9995C595 84.8067 606.193 95.9995 620 95.9995Z" fill="#007AB9"/>
<path d="M634.937 73.0112V83.3182H628.962V73.7019C628.962 71.2874 628.099 69.6385 625.935 69.6385C624.284 69.6385 623.303 70.7486 622.87 71.8235C622.713 72.2077 622.672 72.7411 622.672 73.2799V83.3177H616.696C616.696 83.3177 616.776 67.031 616.696 65.3451H622.673V67.892C622.661 67.9121 622.644 67.9317 622.633 67.9509H622.673V67.892C623.467 66.6701 624.883 64.9231 628.058 64.9231C631.99 64.9231 634.937 67.4918 634.937 73.0112ZM610.444 56.6817C608.4 56.6817 607.063 58.0236 607.063 59.7866C607.063 61.5121 608.361 62.8927 610.366 62.8927H610.405C612.489 62.8927 613.785 61.5121 613.785 59.7866C613.745 58.0236 612.489 56.6817 610.444 56.6817ZM607.418 83.3182H613.392V65.3451H607.418V83.3182Z" fill="#F1F2F2"/>
</g>
<path d="M200 37V12H250V62H200" fill="#007ACC"/>
<path d="M210.963 37.0875V39.125H217.463V57.625H222.075V39.125H228.575V37.125C228.575 36 228.575 35.0875 228.525 35.0625C228.525 35.025 224.563 35.0125 219.75 35.0125L211 35.05V37.1L210.963 37.0875V37.0875ZM240.175 35C241.45 35.3 242.425 35.875 243.3 36.7875C243.763 37.2875 244.45 38.1625 244.5 38.3875C244.5 38.4625 242.338 39.925 241.025 40.7375C240.975 40.775 240.775 40.5625 240.575 40.2375C239.925 39.3125 239.263 38.9125 238.225 38.8375C236.725 38.7375 235.725 39.525 235.725 40.8375C235.725 41.2375 235.8 41.4625 235.95 41.7875C236.288 42.475 236.913 42.8875 238.85 43.7375C242.425 45.275 243.975 46.2875 244.913 47.7375C245.975 49.3625 246.213 51.9125 245.5 53.825C244.7 55.9125 242.75 57.325 239.963 57.7875C239.088 57.9375 237.088 57.9125 236.15 57.75C234.15 57.375 232.238 56.375 231.063 55.0875C230.6 54.5875 229.713 53.25 229.763 53.1625L230.238 52.8625L232.113 51.775L233.525 50.95L233.85 51.3875C234.263 52.0375 235.188 52.9125 235.725 53.2125C237.35 54.05 239.525 53.9375 240.6 52.9625C241.063 52.5375 241.263 52.0875 241.263 51.4625C241.263 50.8875 241.175 50.625 240.888 50.1875C240.488 49.6375 239.688 49.1875 237.438 48.1875C234.85 47.0875 233.75 46.3875 232.725 45.3125C232.138 44.6625 231.6 43.65 231.35 42.8125C231.163 42.0875 231.1 40.3125 231.275 39.6C231.813 37.1 233.7 35.35 236.4 34.85C237.275 34.675 239.338 34.75 240.2 34.975L240.175 35V35Z" fill="white"/>
<path d="M691.105 282H670.895C662.682 282 656 288.682 656 296.895V317.105C656 325.318 662.682 332 670.895 332H691.105C699.318 332 706 325.318 706 317.105V296.895C706 288.682 699.318 282 691.105 282ZM700.97 317.105C700.97 322.553 696.553 326.97 691.105 326.97H670.895C665.447 326.97 661.03 322.553 661.03 317.105V296.895C661.03 291.447 665.447 287.03 670.895 287.03H691.105C696.553 287.03 700.97 291.447 700.97 296.895V317.105Z" fill="url(#paint3_linear_0_1)"/>
<path d="M681 294.068C673.869 294.068 668.068 299.869 668.068 307C668.068 314.13 673.869 319.932 681 319.932C688.131 319.932 693.932 314.131 693.932 307C693.932 299.869 688.131 294.068 681 294.068ZM681 314.902C676.636 314.902 673.098 311.364 673.098 307C673.098 302.636 676.636 299.098 681 299.098C685.364 299.098 688.902 302.636 688.902 307C688.902 311.364 685.364 314.902 681 314.902Z" fill="url(#paint4_linear_0_1)"/>
<path d="M693.956 297.264C695.668 297.264 697.055 295.877 697.055 294.165C697.055 292.454 695.668 291.067 693.956 291.067C692.245 291.067 690.858 292.454 690.858 294.165C690.858 295.877 692.245 297.264 693.956 297.264Z" fill="url(#paint5_linear_0_1)"/>
<path d="M771 282C756.938 282 746 292.938 746 307C746 323.406 760.844 330.438 763.188 330.438C764.75 330.438 764.75 329.656 764.75 328.875V324.969C759.281 326.531 756.938 323.406 756.156 321.062C756.156 321.062 756.156 320.281 754.594 318.719C753.812 317.938 750.688 316.375 753.812 316.375C756.156 316.375 757.719 319.5 757.719 319.5C760.062 322.625 763.188 321.844 764.75 321.062C764.75 319.5 766.312 317.938 766.312 317.938C760.062 317.156 755.375 314.812 755.375 306.219C755.375 303.094 756.156 300.75 757.719 299.188C757.719 299.188 756.156 296.062 757.719 292.156C757.719 292.156 761.625 292.156 764.75 295.281C767.094 293.719 774.906 293.719 777.25 295.281C780.375 292.156 784.281 292.156 784.281 292.156C785.844 297.625 784.281 299.188 784.281 299.188C785.844 300.75 786.625 303.094 786.625 306.219C786.625 314.812 781.156 317.156 775.688 317.938C776.469 318.719 777.25 320.281 777.25 322.625V328.875C777.25 329.656 777.25 330.438 778.812 330.438C781.156 330.438 796 323.406 796 307C796 292.938 785.062 282 771 282Z" fill="black"/>
<defs>
<linearGradient id="paint0_linear_0_1" x1="439.703" y1="35.1415" x2="439.703" y2="256.141" gradientUnits="userSpaceOnUse">
<stop stop-color="#FFF500"/>
<stop offset="0.560417" stop-color="#F46C8F"/>
<stop offset="1" stop-color="#EB00FF"/>
</linearGradient>
<linearGradient id="paint1_linear_0_1" x1="267" y1="197" x2="267" y2="239" gradientUnits="userSpaceOnUse">
<stop stop-color="#71FF65"/>
<stop offset="1" stop-color="#FFE665"/>
</linearGradient>
<linearGradient id="paint2_linear_0_1" x1="667.625" y1="245.283" x2="667.625" y2="468.031" gradientUnits="userSpaceOnUse">
<stop stop-color="#DB00FF"/>
<stop offset="0.510417" stop-color="#FFA800"/>
<stop offset="1" stop-color="#7BEFFF"/>
</linearGradient>
<linearGradient id="paint3_linear_0_1" x1="681" y1="331.854" x2="681" y2="282.388" gradientUnits="userSpaceOnUse">
<stop stop-color="#E09B3D"/>
<stop offset="0.3" stop-color="#C74C4D"/>
<stop offset="0.6" stop-color="#C21975"/>
<stop offset="1" stop-color="#7024C4"/>
</linearGradient>
<linearGradient id="paint4_linear_0_1" x1="681" y1="331.854" x2="681" y2="282.388" gradientUnits="userSpaceOnUse">
<stop stop-color="#E09B3D"/>
<stop offset="0.3" stop-color="#C74C4D"/>
<stop offset="0.6" stop-color="#C21975"/>
<stop offset="1" stop-color="#7024C4"/>
</linearGradient>
<linearGradient id="paint5_linear_0_1" x1="693.956" y1="331.854" x2="693.956" y2="282.388" gradientUnits="userSpaceOnUse">
<stop stop-color="#E09B3D"/>
<stop offset="0.3" stop-color="#C74C4D"/>
<stop offset="0.6" stop-color="#C21975"/>
<stop offset="1" stop-color="#7024C4"/>
</linearGradient>
<clipPath id="clip0_0_1">
<rect width="50" height="50" fill="white" transform="translate(595 46)"/>
</clipPath>
</defs>
</svg>
