<svg viewBox="0 0 573 457" fill="none" xmlns="http://www.w3.org/2000/svg">
<g clip-path="url(#clip0_0_1)">
<g clip-path="url(#clip1_0_1)">
<path d="M459.343 450.533L450.083 450.532L445.678 414.815L459.345 414.816L459.343 450.533Z" fill="#FFB6B6"/>
<path d="M427.617 450.323C427.329 450.809 427.177 452.376 427.177 452.941C427.177 454.676 428.584 456.083 430.32 456.083H458.997C460.181 456.083 461.141 455.123 461.141 453.939V452.745C461.141 452.745 462.559 449.157 459.638 444.734C459.638 444.734 456.008 448.197 450.584 442.773L448.985 439.876L437.406 448.344L430.989 449.133C429.584 449.306 428.34 449.107 427.617 450.323Z" fill="#FFF5DA"/>
<path d="M417.242 450.533L407.982 450.532L403.577 414.815L417.244 414.816L417.242 450.533Z" fill="#FFB6B6"/>
<path d="M385.517 450.323C385.228 450.809 385.076 452.376 385.076 452.941C385.076 454.676 386.483 456.083 388.219 456.083H416.896C418.08 456.083 419.04 455.123 419.04 453.939V452.745C419.04 452.745 420.458 449.157 417.538 444.734C417.538 444.734 413.908 448.197 408.483 442.773L406.884 439.876L395.305 448.344L388.888 449.133C387.484 449.306 386.239 449.107 385.517 450.323Z" fill="#FFF5DA"/>
<path d="M468.343 229L407.737 230.692L401.559 245.917L394 344.879L400.465 432H419.337V349.774L433.596 299.204L439.253 429.462L458.736 432L466.727 342.342L474 256.912L468.343 229Z" fill="#F4DFB6"/>
<path d="M445.325 112L425.822 112.865L423.571 123.241C423.571 123.241 399.567 131.023 401.068 141.4C402.568 151.776 410.069 197.604 410.069 197.604C410.069 197.604 401.818 227.004 407.069 230.463C412.319 233.922 466.429 230.463 466.429 230.463C466.429 230.463 470.83 217.492 468.579 215.763C466.329 214.034 475.331 131.023 473.83 129.294C472.33 127.564 447.576 118.918 447.576 118.918L445.325 112V112Z" fill="#FFF5DA"/>
<path d="M488.526 197.425L490.245 209.454L471.342 252.414L461.891 247.259L472.201 206.876L473.92 191.41L488.526 197.425Z" fill="#FFB6B6"/>
<path d="M470.483 129.548C470.483 129.548 479.934 125.252 486.808 140.718C493.681 156.183 491.963 189.692 491.963 189.692C491.963 189.692 494.54 192.27 492.822 193.988C491.104 195.706 487.838 191.663 491.104 197.127C492.822 200.002 497.977 199.143 492.822 200.002C487.667 200.862 489.473 198.46 491.104 201.721C491.963 203.439 495.4 203.439 491.963 204.298C488.526 205.158 471.233 203.683 471.233 203.683C471.233 203.683 465.328 200.862 468.764 199.143C472.201 197.425 473.92 197.087 472.201 196.397C470.483 195.706 466.187 195.706 468.764 193.129C471.342 190.551 473.06 190.551 471.342 190.551C469.624 190.551 467.69 186.411 467.69 186.411L470.483 129.548V129.548Z" fill="#FFF5DA"/>
<path d="M470.265 259.623C472.359 253.357 471.04 247.269 467.319 246.026C463.598 244.783 458.884 248.855 456.791 255.122C454.697 261.389 456.016 267.477 459.737 268.72C463.458 269.963 468.172 265.89 470.265 259.623Z" fill="#FFB6B6"/>
<path d="M375.436 194.26L368.601 204.307L325.688 223.315L322.178 213.138L357.005 190.245L368.695 179.974L375.436 194.26Z" fill="#FFB6B6"/>
<path d="M407.837 131.946C407.837 131.946 417.716 135.14 412.374 151.199C407.033 167.259 383.186 190.862 383.186 190.862C383.186 190.862 383.354 194.503 380.926 194.615C378.499 194.727 378.81 189.539 377.541 195.777C376.874 199.059 381.262 201.898 376.874 199.059C372.486 196.221 375.438 195.664 374.446 199.171C373.923 201.02 376.463 203.336 373.344 201.655C370.226 199.974 358.441 187.233 358.441 187.233C358.441 187.233 355.978 181.169 359.676 182.215C363.373 183.261 364.871 184.169 364.066 182.501C363.261 180.833 360.087 177.939 363.728 177.771C367.37 177.603 368.639 178.761 367.37 177.603C366.1 176.445 367.46 172.083 367.46 172.083L407.837 131.946Z" fill="#FFF5DA"/>
<path d="M320.035 227.917C325.804 224.697 328.931 219.31 327.019 215.884C325.107 212.459 318.88 212.292 313.111 215.512C307.341 218.732 304.214 224.12 306.126 227.545C308.038 230.971 314.265 231.138 320.035 227.917Z" fill="#FFB6B6"/>
<path d="M441.113 108.21C452.509 108.21 461.747 98.9718 461.747 87.5759C461.747 76.18 452.509 66.9418 441.113 66.9418C429.717 66.9418 420.479 76.18 420.479 87.5759C420.479 98.9718 429.717 108.21 441.113 108.21Z" fill="#FFB6B6"/>
<path d="M326.504 439.923C324.402 441.022 322.298 442.508 320.705 445.138C320.405 445.633 320.137 446.173 319.886 446.732C320.593 441.703 322.002 436.971 324.034 433.03C324.783 431.576 323.524 429.445 322.77 430.908V430.908C319.549 432.581 318.193 436.494 317.675 441.125C317.035 439.466 316.247 437.969 315.329 436.724C314.954 436.215 314.432 436.108 314.065 436.724C313.752 437.25 313.688 438.333 314.065 438.845C312.68 446.124 316.256 448.379 317.491 452.003C317.519 452.807 317.549 453.6 317.576 454.375C317.603 455.143 317.895 455.601 318.235 455.757C318.399 456.186 318.696 456.481 318.998 456.481C319.504 456.481 319.865 455.793 319.892 454.981C319.991 452.002 320.296 446.828 322.065 447.103C325.833 447.687 326.007 444.639 326.979 442.816C327.744 441.382 327.607 439.347 326.504 439.923H326.504Z" fill="url(#paint0_linear_0_1)"/>
<path d="M515.998 439.923C518.101 441.022 520.205 442.508 521.798 445.138C522.098 445.633 522.366 446.173 522.616 446.732C521.91 441.703 520.5 436.971 518.469 433.03C517.719 431.576 518.978 429.445 519.733 430.908V430.908C522.953 432.581 524.31 436.494 524.828 441.125C525.468 439.466 526.255 437.969 527.173 436.724C527.549 436.215 528.071 436.108 528.437 436.724C528.751 437.25 528.815 438.333 528.437 438.845C529.823 446.124 526.246 448.379 525.011 452.003C524.984 452.807 524.954 453.6 524.926 454.375C524.899 455.143 524.608 455.601 524.268 455.757C524.104 456.186 523.807 456.481 523.505 456.481C522.998 456.481 522.638 455.793 522.611 454.981C522.512 452.002 522.207 446.828 520.438 447.103C516.67 447.687 516.495 444.639 515.523 442.816C514.759 441.382 514.896 439.347 515.998 439.923Z" fill="url(#paint1_linear_0_1)"/>
<path d="M168.192 455.986C168.192 456.646 168.722 457.176 169.382 457.176H572.672C573.332 457.176 573.862 456.646 573.862 455.986C573.862 455.326 573.332 454.796 572.672 454.796H169.382C168.722 454.796 168.192 455.326 168.192 455.986Z" fill="#CCCCCC"/>
<path d="M218.914 457.176H42.4889C20.9769 457.176 3.47552 439.675 3.47552 418.162V39.0133C3.47551 17.5014 20.9769 0 42.4889 0H218.914C240.425 0 257.927 17.5014 257.927 39.0133V418.162C257.927 439.675 240.425 457.176 218.914 457.176Z" fill="url(#paint2_linear_0_1)"/>
<path d="M257.927 139.464C257.016 139.464 256.276 140.204 256.276 141.114V193.928C256.276 194.839 257.016 195.579 257.927 195.579C258.837 195.579 259.577 194.839 259.577 193.928V141.114C259.577 140.204 258.837 139.464 257.927 139.464Z" fill="url(#paint3_linear_0_1)"/>
<path d="M254.213 39.0136V418.156C254.213 436.88 239.64 452.197 221.213 453.385H221.204C220.932 453.401 220.66 453.418 220.379 453.426C219.892 453.451 219.405 453.459 218.91 453.459C218.91 453.459 217.095 453.327 213.777 453.08C210.427 452.832 205.55 452.461 199.468 451.974C197.644 451.833 195.721 451.677 193.691 451.512C189.648 451.182 185.208 450.818 180.446 450.406C178.548 450.249 176.584 450.076 174.579 449.902C164.33 449.019 152.851 447.988 140.745 446.816C138.698 446.626 136.635 446.428 134.555 446.222C134.011 446.164 133.458 446.115 132.905 446.057C124.273 445.207 7.18941 422.579 7.18941 418.156V39.0136C7.1894 19.5136 22.9925 3.71045 42.4926 3.71045H63.5689C66.9358 3.71045 69.6426 6.33467 69.9314 9.69335C69.9562 9.91618 69.9809 10.1389 70.0222 10.3618C70.6328 13.737 73.7274 16.0889 77.1604 16.0889H184.242C187.675 16.0889 190.77 13.737 191.381 10.3618C191.422 10.1389 191.447 9.91618 191.471 9.69335C191.76 6.33467 194.467 3.71045 197.834 3.71045H218.91C238.41 3.71045 254.213 19.5136 254.213 39.0136H254.213Z" fill="white" fill-opacity="0.6"/>
<path d="M2.65045 99.8526C1.7402 99.8526 1 100.593 1 101.503V114.707C1 115.617 1.74021 116.357 2.65045 116.357C3.56069 116.357 4.3009 115.617 4.3009 114.707V101.503C4.3009 100.593 3.56069 99.8526 2.65045 99.8526Z" fill="url(#paint4_linear_0_1)"/>
<path d="M2.65045 139.464C1.7402 139.464 1 140.204 1 141.114V166.696C1 167.606 1.74021 168.346 2.65045 168.346C3.56069 168.346 4.3009 167.606 4.3009 166.696V141.114C4.3009 140.204 3.56069 139.464 2.65045 139.464Z" fill="url(#paint5_linear_0_1)"/>
<path d="M2.65045 175.773C1.7402 175.773 1 176.514 1 177.424V203.006C1 203.916 1.74021 204.656 2.65045 204.656C3.56069 204.656 4.3009 203.916 4.3009 203.006V177.424C4.3009 176.514 3.56069 175.773 2.65045 175.773Z" fill="url(#paint6_linear_0_1)"/>
<path d="M62.9944 9.49023H31.431C31.2597 9.49023 31.1208 9.62912 31.1208 9.80044V13.3062C31.1208 13.4775 31.2597 13.6164 31.431 13.6164H62.9944C63.1658 13.6164 63.3046 13.4775 63.3046 13.3062V9.80044C63.3046 9.62912 63.1658 9.49023 62.9944 9.49023Z" fill="#E6E6E6"/>
<path d="M203.049 13.6164C204.872 13.6164 206.35 12.1385 206.35 10.3155C206.35 8.49245 204.872 7.01459 203.049 7.01459C201.226 7.01459 199.748 8.49245 199.748 10.3155C199.748 12.1385 201.226 13.6164 203.049 13.6164Z" fill="#E6E6E6"/>
<path d="M212.127 13.6164C213.95 13.6164 215.428 12.1385 215.428 10.3155C215.428 8.49245 213.95 7.01459 212.127 7.01459C210.304 7.01459 208.826 8.49245 208.826 10.3155C208.826 12.1385 210.304 13.6164 212.127 13.6164Z" fill="#E6E6E6"/>
<path d="M221.204 13.6164C223.027 13.6164 224.505 12.1385 224.505 10.3155C224.505 8.49245 223.027 7.01459 221.204 7.01459C219.381 7.01459 217.903 8.49245 217.903 10.3155C217.903 12.1385 219.381 13.6164 221.204 13.6164Z" fill="#E6E6E6"/>
<path d="M240.914 436.304L248.576 434.574L244.242 399.29L232.935 401.842L240.914 436.304Z" fill="#FFB6B6"/>
<path d="M271.03 445.642C271.353 446.929 270.701 448.201 269.575 448.483L254.457 452.274C254.457 452.274 251.469 446.667 244.758 445.614L246.484 454.273L238.685 456.229L236.181 442.237C236.181 442.237 232.25 435.401 235.639 430.553C239.029 425.705 235.651 427.108 235.651 427.108L235.221 418.168L247.354 416.599L250.791 429.941L259.836 441.772L269.264 443.812C270.103 443.994 270.797 444.713 271.03 445.642L271.03 445.642Z" fill="#2D2D2D"/>
<path d="M168.135 428.399L175.407 431.366L192.051 399.954L181.319 395.574L168.135 428.399Z" fill="#FFB6B6"/>
<path d="M187.483 453.295C187.011 454.535 185.749 455.205 184.663 454.792L170.097 449.246C170.097 449.246 170.857 442.938 165.957 438.233L162.416 446.321L154.901 443.46L160.858 430.554C160.858 430.554 161.547 422.699 167.102 420.664C172.656 418.629 169.083 417.846 169.083 417.846L173.848 410.269L184.695 415.928L179.876 428.835L180.52 443.714L187.082 450.784C187.667 451.413 187.824 452.4 187.483 453.295L187.483 453.295Z" fill="#2D2D2D"/>
<path d="M207.752 114.771L168.791 113.811C168.894 111.985 168.548 110.147 167.789 108.49C167.725 110.308 167.271 112.116 166.478 113.755L164.707 113.711C162.003 113.644 159.858 111.391 159.924 108.687L160.548 83.3701C160.853 70.9736 170.845 60.9974 183.237 60.7119C183.608 60.702 183.97 60.7013 184.342 60.7105C194.425 60.9588 203.271 67.7216 206.098 77.4895C210.652 75.5249 213.056 87.3879 214.385 106.17C215.639 110.545 212.293 114.883 207.752 114.771Z" fill="#2D2D2D"/>
<path d="M280.64 261.395C282.459 266.021 281.546 270.71 278.602 271.867C275.658 273.024 271.798 270.212 269.979 265.586C269.183 263.561 268.91 261.524 269.102 259.776L261.643 240.077L270.962 236.773L277.326 256.543C278.657 257.692 279.844 259.37 280.64 261.395Z" fill="#FFB6B6"/>
<path d="M199.051 105.982L180.332 109.419L182.978 118.059L175.651 183.456L184.653 204.795L242.849 201.464L229.27 172.549C229.27 172.549 235.569 148.887 228.07 143.939C220.57 138.991 208.779 114.883 208.779 114.883L199.051 105.982L199.051 105.982Z" fill="#FFF5DA"/>
<path d="M181.502 113.24L164.841 119.518L168.49 203.444L154.331 275.5L194.155 283.149C194.155 283.149 193.334 123.077 190.548 120.151C187.762 117.224 181.502 113.24 181.502 113.24L181.502 113.24Z" fill="#2D2D2D"/>
<path d="M213.556 124.488C213.556 124.488 224.458 117.961 230.133 123.132C235.809 128.304 277.468 250.963 277.468 250.963L265.295 255.9L239.1 197.306L213.556 124.488L213.556 124.488Z" fill="#2D2D2D"/>
<path d="M239.263 330.056L248.093 414.043L232.836 414.62C232.836 414.62 225.447 392.812 217.038 367.13C215.248 361.684 213.414 356.066 211.6 350.438C209.635 344.331 207.68 338.224 205.825 332.329C201.238 317.792 197.229 304.565 194.965 295.935C194.573 294.42 194.226 293.049 193.941 291.842C187.907 266.085 185.745 199.105 185.745 199.105L241.085 195.705L241.657 196.453L253.082 211.472L252.453 214.572L235.743 296.558L239.263 330.056L239.263 330.056Z" fill="#2D2D2D"/>
<path d="M235.743 296.558L239.263 330.056L218.888 363.956L217.038 367.13L188.947 415.33L175.851 407.472C175.851 407.472 194.109 368.185 205.825 332.329C207.122 328.388 208.333 324.483 209.427 320.68C212.645 309.546 208.331 288.976 210.355 283.386C217.193 264.52 238.886 226.975 248.946 209.97L252.453 214.572L235.743 296.558Z" fill="#2D2D2D"/>
<path d="M208.555 114.153L227.657 122.017L274.484 270.837L243.9 274.847L231.728 188.806L208.555 114.153Z" fill="#2D2D2D"/>
<path d="M156.419 272.264C155.807 277.197 152.765 280.88 149.626 280.49C146.487 280.1 144.439 275.785 145.051 270.852C145.32 268.693 146.053 266.773 147.057 265.33L149.915 244.46L159.68 246.01L155.826 266.419C156.446 268.064 156.687 270.105 156.419 272.264L156.419 272.264Z" fill="#FFB6B6"/>
<path d="M171.506 119.682C171.506 119.682 159.198 116.521 155.226 123.092C151.253 129.663 146.16 259.103 146.16 259.103L159.234 260.377L167.702 196.756L171.506 119.682L171.506 119.682Z" fill="#2D2D2D"/>
<path d="M187.713 103.393C198.643 103.662 207.723 95.019 207.992 84.0882C208.261 73.1575 199.618 64.0781 188.687 63.8089C177.757 63.5397 168.677 72.1827 168.408 83.1135C168.139 94.0442 176.782 103.124 187.713 103.393Z" fill="#FFB6B6"/>
<path d="M208.736 82.0635C208.736 82.0635 200.16 78.9937 194.912 81.723C187.619 85.516 169.349 81.0935 169.349 81.0935L169.569 72.1447C169.698 66.9205 173.294 62.5997 177.959 62.0662L191.26 60.5448C201.7 59.3506 210.668 68.6247 210.38 80.3187C210.356 81.3041 209.62 82.0852 208.736 82.0635Z" fill="#2D2D2D"/>
<path d="M191.223 114.364L168.791 113.811C168.894 111.985 168.548 110.147 167.789 108.49C167.725 110.308 167.271 112.116 166.478 113.754L165.516 113.731L166.501 73.7421L183.639 74.1642L191.223 114.364Z" fill="#2D2D2D"/>
</g>
<path d="M463.405 64.9045C462.373 63.9682 461.031 63.4105 459.614 63.3289C458.208 63.3725 456.782 64.5932 457.073 65.9162C454.491 61.5206 450.38 58.1398 445.463 56.3674C440.546 54.595 435.137 54.5441 430.185 56.2237C426.69 57.4088 423.263 59.7799 422.46 63.2575C422.382 64.1705 422.099 65.0563 421.63 65.8539C421.224 66.2803 420.697 66.5832 420.114 66.7252C419.531 66.8672 418.917 66.8421 418.349 66.6531L418.314 66.6433C418.12 66.5795 417.91 66.5732 417.711 66.6253C417.513 66.6774 417.336 66.7856 417.202 66.9357C417.068 67.0859 416.984 67.2711 416.961 67.4675C416.938 67.6639 416.977 67.8625 417.073 68.0374L418.062 69.8101C416.815 70.0771 415.52 70.0507 414.287 69.7329C414.082 69.6812 413.865 69.6918 413.667 69.7631C413.469 69.8344 413.298 69.963 413.179 70.1312C413.059 70.2994 412.997 70.499 413 70.7026C413.003 70.9062 413.072 71.1038 413.197 71.2684C414.84 73.4295 416.985 75.192 419.462 76.4158C421.938 77.6395 424.678 78.2907 427.462 78.3174C431.413 78.2942 435.404 76.9853 439.249 77.8587C440.736 78.1965 442.126 78.8502 443.317 79.7718C444.507 80.6933 445.467 81.8594 446.128 83.1844C446.788 84.5093 447.132 85.9597 447.133 87.4289C447.134 88.8981 446.793 90.3489 446.135 91.675C447.316 90.433 449.6 90.7271 450.808 91.9448C451.364 92.5966 451.775 93.3513 452.016 94.1621C452.257 94.973 452.322 95.8226 452.207 96.6586C451.885 99.219 451.094 101.704 449.871 104C454.543 103.862 459.058 102.349 462.806 99.6649C466.555 96.9811 469.356 93.2561 470.832 88.9929C472.308 84.7297 472.387 80.1338 471.059 75.826C469.731 71.5182 467.059 67.7061 463.405 64.9045Z" fill="#2D2D2D"/>
</g>
<defs>
<linearGradient id="paint0_linear_0_1" x1="320.606" y1="430.417" x2="320.606" y2="456.481" gradientUnits="userSpaceOnUse">
<stop stop-color="#FF00E5"/>
<stop offset="1" stop-color="#00FFFF"/>
</linearGradient>
<linearGradient id="paint1_linear_0_1" x1="521.897" y1="430.417" x2="521.897" y2="456.481" gradientUnits="userSpaceOnUse">
<stop stop-color="#FF00E5"/>
<stop offset="1" stop-color="#00FFFF"/>
</linearGradient>
<linearGradient id="paint2_linear_0_1" x1="130.701" y1="0" x2="130.701" y2="457.176" gradientUnits="userSpaceOnUse">
<stop stop-color="#847AFF"/>
<stop offset="0.523958" stop-color="#F87A7A"/>
<stop offset="1" stop-color="#FF7AF2"/>
</linearGradient>
<linearGradient id="paint3_linear_0_1" x1="257.927" y1="139.464" x2="257.927" y2="195.579" gradientUnits="userSpaceOnUse">
<stop stop-color="#847AFF"/>
<stop offset="0.523958" stop-color="#F87A7A"/>
<stop offset="1" stop-color="#FF7AF2"/>
</linearGradient>
<linearGradient id="paint4_linear_0_1" x1="2.65045" y1="99.8526" x2="2.65045" y2="116.357" gradientUnits="userSpaceOnUse">
<stop stop-color="#847AFF"/>
<stop offset="0.523958" stop-color="#F87A7A"/>
<stop offset="1" stop-color="#FF7AF2"/>
</linearGradient>
<linearGradient id="paint5_linear_0_1" x1="2.65045" y1="139.464" x2="2.65045" y2="168.346" gradientUnits="userSpaceOnUse">
<stop stop-color="#847AFF"/>
<stop offset="0.523958" stop-color="#F87A7A"/>
<stop offset="1" stop-color="#FF7AF2"/>
</linearGradient>
<linearGradient id="paint6_linear_0_1" x1="2.65045" y1="175.773" x2="2.65045" y2="204.656" gradientUnits="userSpaceOnUse">
<stop stop-color="#847AFF"/>
<stop offset="0.523958" stop-color="#F87A7A"/>
<stop offset="1" stop-color="#FF7AF2"/>
</linearGradient>
<clipPath id="clip0_0_1">
<rect width="573" height="457" fill="white"/>
</clipPath>
<clipPath id="clip1_0_1">
<rect width="572.862" height="457.176" fill="white" transform="translate(1)"/>
</clipPath>
</defs>
</svg>
