<svg width="640" height="640" viewBox="0 0 640 640" fill="none" xmlns="http://www.w3.org/2000/svg">
<path d="M245.8 362.4L283.7 513.3" stroke="black" stroke-width="7" stroke-miterlimit="10"/>
<path d="M395.5 404.8L245.8 362.4" stroke="black" stroke-width="7" stroke-miterlimit="10"/>
<path d="M283.7 513.3L395.5 404.8" stroke="black" stroke-width="7" stroke-miterlimit="10"/>
<path d="M283.7 513.3L134 470.9" stroke="black" stroke-width="7" stroke-miterlimit="10"/>
<path d="M134 470.9L171.9 621.9L283.7 513.3" stroke="black" stroke-width="7" stroke-miterlimit="10"/>
<path d="M134 470.9L245.8 362.4" stroke="black" stroke-width="7" stroke-miterlimit="10"/>
<path d="M245.8 362.4L357.7 253.8" stroke="black" stroke-width="7" stroke-miterlimit="10"/>
<path d="M357.7 253.8L469.5 145.3" stroke="black" stroke-width="7" stroke-miterlimit="10"/>
<path d="M319.8 102.9L357.7 253.8" stroke="black" stroke-width="7" stroke-miterlimit="10"/>
<path d="M357.7 253.8L207.9 211.5" stroke="black" stroke-width="7" stroke-miterlimit="10"/>
<path d="M207.9 211.5L245.8 362.4" stroke="black" stroke-width="7" stroke-miterlimit="10"/>
<path d="M245.8 362.4L96.1 320" stroke="black" stroke-width="7" stroke-miterlimit="10"/>
<path d="M96.1 320L134 470.9" stroke="black" stroke-width="7" stroke-miterlimit="10"/>
<path d="M58.2 169.1L96.1 320" stroke="black" stroke-width="7" stroke-miterlimit="10"/>
<path d="M207.9 211.5L58.2 169.1" stroke="black" stroke-width="7" stroke-miterlimit="10"/>
<path d="M96.1 320L207.9 211.5" stroke="black" stroke-width="7" stroke-miterlimit="10"/>
<path d="M207.9 211.4L319.8 102.9" stroke="black" stroke-width="7" stroke-miterlimit="10"/>
<path d="M319.8 102.9L170 60.5" stroke="black" stroke-width="7" stroke-miterlimit="10"/>
<path d="M170 60.5L207.9 211.4" stroke="black" stroke-width="7" stroke-miterlimit="10"/>
<path d="M58.2 169.1L20.3 18.1L170 60.5" stroke="black" stroke-width="7" stroke-miterlimit="10"/>
<path d="M58.2 169.1L170 60.5" stroke="black" stroke-width="7" stroke-miterlimit="10"/>
<path d="M507.4 296.2L619.2 187.7L469.5 145.3" stroke="black" stroke-width="7" stroke-miterlimit="10"/>
<path d="M469.5 145.3L507.4 296.2" stroke="black" stroke-width="7" stroke-miterlimit="10"/>
<path d="M507.4 296.2L357.7 253.8" stroke="black" stroke-width="7" stroke-miterlimit="10"/>
<path d="M357.7 253.8L395.5 404.8" stroke="black" stroke-width="7" stroke-miterlimit="10"/>
<path d="M395.5 404.8L507.4 296.2" stroke="black" stroke-width="7" stroke-miterlimit="10"/>
<path d="M469.5 145.3L319.8 102.9" stroke="black" stroke-width="7" stroke-miterlimit="10"/>
</svg>
